<svg width="60" height="60" viewBox="0 0 60 60" fill="none" xmlns="http://www.w3.org/2000/svg">
<path d="M0 10C0 4.47715 4.47715 0 10 0H50C55.5228 0 60 4.47715 60 10V50C60 55.5228 55.5228 60 50 60H10C4.47715 60 0 55.5228 0 50V10Z" fill="white"/>
<path fill-rule="evenodd" clip-rule="evenodd" d="M30 7.5C16.7787 7.5 6.53223 17.1348 6.53223 30.1471C6.53223 36.954 9.33702 42.8353 13.9031 46.8988C14.2855 47.2417 14.5169 47.7162 14.5358 48.2282L14.6633 52.3809C14.7058 53.7056 16.0799 54.5653 17.2981 54.0344L21.9539 51.991C22.3505 51.8172 22.7896 51.7843 23.2052 51.897C25.3442 52.4842 27.6249 52.7943 30 52.7943C43.2212 52.7943 53.4677 43.1595 53.4677 30.1471C53.4677 17.1348 43.2212 7.5 30 7.5Z" fill="url(#paint0_linear_260_56)"/>
<path fill-rule="evenodd" clip-rule="evenodd" d="M15.9087 37.0032L22.8032 26.1388C23.8988 24.4125 26.2505 23.9809 27.8939 25.2053L33.3765 29.2912C33.8818 29.6665 34.5712 29.6618 35.0718 29.2865L42.4763 23.7042C43.4633 22.9583 44.7572 24.1358 44.0914 25.1772L37.2015 36.0369C36.106 37.7632 33.7543 38.1948 32.1109 36.9704L26.6283 32.8845C26.123 32.5092 25.4336 32.5139 24.933 32.8892L17.5237 38.4762C16.5367 39.2221 15.2428 38.0447 15.9087 37.0032Z" fill="white"/>
<defs>
<linearGradient id="paint0_linear_260_56" x1="6.53193" y1="7.5" x2="6.53193" y2="54.1941" gradientUnits="userSpaceOnUse">
<stop stop-color="#00B2FF"/>
<stop offset="1" stop-color="#006AFF"/>
</linearGradient>
</defs>
</svg>
