<svg width="60" height="60" viewBox="0 0 60 60" fill="none" xmlns="http://www.w3.org/2000/svg">
<g clip-path="url(#clip0_229_259)">
<path d="M0 22.1538C0 14.3993 0 10.522 1.50914 7.56013C2.83662 4.95481 4.95481 2.83662 7.56013 1.50914C10.522 0 14.3993 0 22.1538 0H37.8462C45.6007 0 49.478 0 52.4399 1.50914C55.0452 2.83662 57.1634 4.95481 58.4909 7.56013C60 10.522 60 14.3993 60 22.1538V37.8462C60 45.6007 60 49.478 58.4909 52.4399C57.1634 55.0452 55.0452 57.1634 52.4399 58.4909C49.478 60 45.6007 60 37.8462 60H22.1538C14.3993 60 10.522 60 7.56013 58.4909C4.95481 57.1634 2.83662 55.0452 1.50914 52.4399C0 49.478 0 45.6007 0 37.8462V22.1538Z" fill="white"/>
<path d="M16.9283 15.7437H18.0905V9.67676H18.1303L20.6084 15.7437H21.554L24.032 9.67676H24.0719V15.7437H25.234V7.52344H23.7643L21.0983 14.0859H21.0641L18.4038 7.52344H16.9283V15.7437Z" fill="#FE3C3B"/>
<path d="M30.8873 15.8804C33.2628 15.8804 34.7382 14.2454 34.7382 11.6364V11.625C34.7382 9.02165 33.2571 7.38672 30.8873 7.38672C28.5232 7.38672 27.0364 9.01595 27.0364 11.625V11.6364C27.0364 14.2511 28.5175 15.8804 30.8873 15.8804ZM30.8873 14.7524C29.3265 14.7524 28.3352 13.5505 28.3352 11.6364V11.625C28.3352 9.71094 29.3322 8.51465 30.8873 8.51465C32.4482 8.51465 33.4337 9.71663 33.4337 11.625V11.6364C33.4337 13.5334 32.4653 14.7524 30.8873 14.7524Z" fill="#FE3C3B"/>
<path d="M36.5406 15.7437H37.8053V9.65397H37.8395L42.0721 15.7437H43.2456V7.52344H41.9809V13.6017H41.9467L37.7198 7.52344H36.5406V15.7437Z" fill="#FE3C3B"/>
<path d="M21.5314 49.4761C26.7996 49.4761 30.6642 46.2313 30.6642 41.8381V41.8016C30.6642 38.0646 28.0575 35.6766 24.2293 35.3485V35.2756C27.5106 34.5828 29.8075 32.3589 29.8075 29.1141V29.0776C29.8075 25.0854 26.508 22.2964 21.495 22.2964C16.5731 22.2964 13.1825 25.1584 12.7632 29.4422L12.745 29.6245H15.8986L15.9168 29.4422C16.1903 26.7808 18.396 25.1401 21.495 25.1401C24.7033 25.1401 26.508 26.7261 26.508 29.4787V29.5151C26.508 32.1401 24.3205 34.0724 21.1851 34.0724H18.0314V36.8433H21.3309C25.0132 36.8433 27.3283 38.6479 27.3283 41.8745V41.911C27.3283 44.7 24.9767 46.6323 21.5314 46.6323C18.0314 46.6323 15.6616 44.8459 15.3882 42.2573L15.37 42.075H12.2163L12.2345 42.2938C12.5809 46.45 16.0991 49.4761 21.5314 49.4761Z" fill="#262626"/>
<path d="M41.3908 49.0386H44.5627V22.7339H41.3543L34.3543 27.7651V31.0646L41.3179 26.2157H41.3908V49.0386Z" fill="#262626"/>
</g>
<defs>
<clipPath id="clip0_229_259">
<rect width="60" height="60" fill="white"/>
</clipPath>
</defs>
</svg>
